<?xml version="1.0" encoding="UTF-8"?>
<svg id="Layer_2" data-name="Layer 2" xmlns="http://www.w3.org/2000/svg" viewBox="0 0 1028 1028">
  <defs>
    <style>
      .cls-1 {
        fill: #6e3cff;
      }

      .cls-2 {
        fill: #fff;
      }
    </style>
  </defs>
  <g id="Layer_1-2" data-name="Layer 1">
    <g>
      <rect width="1028" height="1028"/>
      <g>
        <path class="cls-2" d="M185.76,451.65c35.38,0,50.88,25.04,52.34,43.94h-21.81c-1.45-11.15-10.82-24.55-30.21-24.55-21.97,0-34.57,17.28-34.57,38.77s12.6,38.77,34.57,38.77c19.38,0,28.75-13.41,30.21-24.55h21.81c-1.45,18.9-16.96,43.94-52.34,43.94s-56.21-26.01-56.21-58.15,20.35-58.15,56.21-58.15Z"/>
        <path class="cls-2" d="M271.7,566.66h-20.68v-116.3h20.68v116.3Z"/>
        <path class="cls-2" d="M288.5,450.36h20.68v20.68h-20.68v-20.68ZM309.17,481.37v85.29h-20.68v-85.29h20.68Z"/>
        <path class="cls-2" d="M362.64,480.08c23.91,0,38.12,16.15,39.58,33.6h-20.35c-1.29-8.08-7.59-14.86-19.22-14.86-14.21,0-22.45,10.34-22.45,25.2s8.24,25.2,22.45,25.2c11.63,0,17.93-6.78,19.22-14.86h20.35c-1.45,17.45-15.51,33.6-39.58,33.6-26.01,0-43.13-18.58-43.13-43.94s16.64-43.94,43.13-43.94Z"/>
        <path class="cls-2" d="M492.67,566.66h-25.84l-26.17-35.7-7.43,7.43v28.27h-20.68v-116.3h20.68v50.88c0,6.79-1.62,9.53-4.2,12.76-.65.81-.97,1.94,0,2.75,1.29.97,2.26,0,2.75-.48l32.47-34.89h25.84l-35.54,35.7,38.12,49.59Z"/>
        <path class="cls-2" d="M572.31,529.19h-62.03c1.45,12.92,9.85,20.68,22.78,20.68,9.85,0,14.86-5.33,17.28-12.92h21c-3.71,17.61-15.67,31.01-38.44,31.01-27.62,0-42.8-18.58-42.8-43.94,0-26.65,16.48-43.94,42.48-43.94,19.71,0,40.22,11.79,40.22,42.81,0,2.26-.16,3.88-.48,6.3ZM552.12,514.97c-.81-10.34-6.95-18.09-18.9-18.09-14.05,0-20.03,7.91-22.13,18.09h41.03Z"/>
        <path class="cls-2" d="M608.98,478.47v2.91h23.26v18.09h-23.26v67.2h-20.68v-67.2h-12.92v-18.09h12.92v-4.85c0-20.51,8.08-26.17,25.2-26.17h18.74v18.09h-14.38c-8.72,0-8.88.65-8.88,10.01Z"/>
        <path class="cls-2" d="M634.83,481.37h21.97l19.06,55.08c1.13,3.39,1.29,6.46,1.29,9.69,0,1.13.16,2.75,1.94,2.75s1.94-1.45,1.94-2.75c0-3.07.32-6.3,1.45-9.69l18.25-55.08h21.97l-36.18,95.14c-5.82,15.18-13.89,21.16-28.75,21.16h-15.51v-18.09h7.11c12.28,0,14.7,0,16.96-6.62l1.78-5.17-33.27-86.42Z"/>
        <path class="cls-1" d="M727.87,543.4h23.26v23.26h-23.26v-23.26Z"/>
        <path class="cls-1" d="M845.47,566.66l-8.72-25.84h-47.17l-8.72,25.84h-24.55l41.35-113.72h31.01l41.35,113.72h-24.55ZM795.55,522.72h35.21l-13.08-38.93c-1.45-4.52-2.42-10.5-2.58-16.15,0-.97-.32-2.26-1.94-2.26s-1.94,1.29-1.94,2.26c-.16,5.65-1.13,11.63-2.58,16.15l-13.08,38.93Z"/>
        <path class="cls-1" d="M877.78,450.36h20.68v20.68h-20.68v-20.68ZM898.45,481.37v85.29h-20.68v-85.29h20.68Z"/>
      </g>
    </g>
  </g>
</svg>